<svg xmlns="http://www.w3.org/2000/svg" fill="none" viewBox="0 0 143 142">
  <path fill="#fff" d="M78.6599.76895c-1.3943.56305-2.261 1.91437-2.261 3.45338 0 1.83929.7913 2.6651 4.2205 4.42933 2.1103 1.1261 2.5625 1.50144 2.5625 2.28974 0 2.3273-4.1075 2.1771-5.5018-.1877-.6406-1.05102-.9044-1.2387-1.5827-.97594-.5653.22524-.7914.60054-.716 1.20114.3015 2.7027 5.4641 4.6546 8.3658 3.1531 1.3566-.7132 1.8841-1.6141 1.8841-3.3783 0-1.6516-1.1305-2.89032-3.6553-3.97888-2.2987-.97595-3.1277-1.72669-3.1277-2.85279 0-1.95191 3.8437-1.87683 5.1626.11261.6407 1.01349 1.9219 1.20118 2.261.3003.3015-.78827-.942-2.36482-2.5247-3.19062-1.3567-.750737-3.7684-.900883-5.0873-.37537zM57.1803 1.1443c-.5276.22522-1.0175 1.16364-1.6204 3.22815l-.8667 2.89033-2.3364-2.06452c-1.9596-1.68915-2.5625-2.02698-3.3915-1.87683-.5653.11261-1.0175.30029-1.0175.45044 0 .11261 1.432 1.65161 3.1654 3.3783 3.0147 3.00293 3.1654 3.19063 3.8437 5.89323.6783 2.7027.716 2.8153 1.6581 2.59.5276-.1501 1.0175-.3378 1.1305-.4129.0754-.1126-.1507-1.3137-.4899-2.7026-.829-3.26568-.829-3.37829.4899-7.5824.603-1.9519 1.1305-3.67859 1.1305-3.86627 0-.33783-.716-.300293-1.6957.07507zM92.5274 5.49851c-2.7132 1.65161-4.2205 5.78069-3.09 8.70849.8667 2.3273 4.1075 4.617 6.5569 4.617.6406 0 1.8842-.3378 2.7886-.7507l1.6581-.7507-.8668-.9384c-.829-.8634-.9044-.8634-1.9972-.3379-2.3364 1.2387-5.6525-.4504-6.1424-3.1155-.3392-1.7267.7537-4.39182 2.1856-5.40531 2.2987-1.65162 5.5018-.75074 6.6698 1.8393.415.93841.792 1.20121 1.621 1.20121 1.356 0 1.356-.71324.113-2.85283-1.809-3.04047-6.2935-4.12904-9.4966-2.21466zM38.8284 7.6757c-2.0349 1.08856-3.7684 2.10205-3.9191 2.2522-.1131.1126 1.1682 2.9279 2.9016 6.1936l3.1278 6.0058 4.0698-2.027c2.2233-1.1261 4.0698-2.1771 4.0698-2.3272 0-.1877-.2261-.6006-.4899-.976-.4522-.6006-.6783-.563-3.3915.9009-1.6204.8633-3.0147 1.539-3.0524 1.4639-.0753-.0751-.4898-.8633-.9421-1.7267l-.7913-1.614 2.6002-1.3138c2.977-1.464 3.2407-1.7642 2.6755-2.8153-.4145-.7882-.4899-.7507-3.2031.7132-1.545.8634-2.864 1.539-2.977 1.539-.2261 0-1.7335-2.8152-1.7335-3.1531 0-.1126 1.3567-.90084 2.977-1.72664 2.864-1.50147 2.977-1.61408 2.6002-2.47742-.2261-.48798-.5276-.90088-.6406-.90088-.1131 0-1.8842.90088-3.8814 1.98944zM105.415 15.7836c-2.072 2.8528-3.768 5.4052-3.768 5.668 0 .2628.339.7132.791 1.0135.754.488.867.3754 2.224-1.5765l1.431-2.0646 1.169.7508c1.055.6756 1.168.9008 1.092 2.5149-.037 1.0135-.188 2.4024-.263 3.1156-.189 1.2011-.076 1.4264.904 1.9894l1.093.6381.226-1.7642c.528-4.2792.528-4.2416 1.62-4.2416 3.166-.0376 5.276-3.8663 3.543-6.4563-.679-1.0135-5.427-4.8047-5.992-4.8047-.151.0375-1.997 2.3648-4.07 5.2176zm6.519-1.0886c1.809 1.3513 2.224 2.3648 1.545 3.6035-.866 1.6516-2.637 1.5015-5.125-.4879l-.866-.6757 1.243-1.7642c.641-.976 1.282-1.8018 1.432-1.8018.113 0 .905.5255 1.771 1.1261zM65.3576 11.6545c-.2638.1502-.6029 1.2387-.716 2.4024-.1884 1.9894-.1507 2.1396.5653 2.1396.8667 0 1.0174-.4129 1.4319-3.1156.2261-1.8017-.0753-2.2146-1.2812-1.4264zM28.7669 13.9818c-.9798.7883-1.0551.6381 1.5827 3.7161l1.4697 1.6892-2.1857 1.9519c-1.2435 1.0885-2.3364 1.9894-2.4871 1.9894-.1507 0-1.1305-1.0135-2.2233-2.2522l-1.9596-2.2522-.8667.7883-.8667.8258 3.8437 4.4669c2.1103 2.4774 4.1452 4.8422 4.4844 5.2926.6029.7883.6406.7883 1.3942.1126.4522-.4129.7914-.8633.7914-1.0135 0-.1501-.6783-1.0885-1.5073-2.0269-.8291-.9385-1.5074-1.8769-1.5074-2.0646 0-.1501 1.0175-1.1636 2.2233-2.2146l2.2234-1.9144 1.8465 2.1021 1.8465 2.0645.942-.7132.9045-.7507-.7914-.9009c-.4145-.4505-2.3741-2.7402-4.2959-4.9924-1.9219-2.2897-3.58-4.2416-3.7307-4.3918-.113-.1501-.6406.0751-1.1305.488zM118.981 23.4411c-4.107 1.614-5.916 6.156-3.957 9.9847 3.467 6.7566 13.604 4.542 13.567-3.0029-.038-5.105-5.05-8.7461-9.61-6.9818zm4.598 2.4023c2.487 1.1637 3.542 4.5044 2.11 6.8692-.678 1.2012-3.015 2.6276-4.221 2.6276-1.507 0-3.391-1.051-4.183-2.3273-1.507-2.4774-.715-5.5179 1.847-7.0193 1.658-.9385 2.713-.976 4.447-.1502zM17.3111 38.2305c-3.2408 5.3302-3.5423 5.9683-3.0147 6.3812.3392.2628.7537.488.9044.488.1507 0 1.8842-2.6651 3.8814-5.8933 2.7132-4.4668 3.5046-6.0059 3.1654-6.3812-.2261-.2628-.6029-.488-.8667-.488-.2638 0-2.1103 2.6651-4.0698 5.8933zM128.025 40.1073c-3.316 1.539-6.067 2.8528-6.142 2.8903-.038.0751.716 1.8018 1.696 3.9038 1.281 2.8528 1.921 3.8288 2.449 3.8288 1.168 0 1.168-.9009-.038-3.566-.64-1.3889-1.092-2.6651-.979-2.7777.075-.1502 2.449-1.3514 5.2-2.6651l5.05-2.3273-.415-1.0886c-.188-.6006-.49-1.0885-.603-1.051-.113 0-2.902 1.2762-6.218 2.8528zM4.42333 46.3009c-.26378 1.3138-.15073 1.539 1.65808 3.566 1.05513 1.1636 1.8088 2.2146 1.69575 2.3272-.11305.1126-1.39429.5631-2.86394.976-2.2987.6381-2.7509.9009-3.05237 1.8017-.18841.6006-.26378 1.1261-.18841 1.2012.07536.1126 1.99722-.3378 4.29592-.9759l4.10754-1.1637 2.9393.8258c1.6204.488 2.977.7883 3.09.7132.0754-.075.2261-.6006.3769-1.1261.2261-.9384.113-1.0135-2.6756-1.8393-3.0523-.9008-3.2408-1.051-7.95119-6.3812L4.68712 44.912l-.26379 1.3889zM133.113 51.1807c-3.43.8258-6.369 1.6141-6.52 1.7642-.15.1502.189 2.1396.716 4.4293.98 3.9038 1.093 4.0915 1.922 3.9414 1.018-.1877 1.055-.6381.302-3.4534-.905-3.3408-1.131-3.078 4.71-4.5044 2.902-.7132 5.426-1.3888 5.615-1.5015.377-.2252.113-2.2522-.302-2.2146-.113 0-3.014.7132-6.443 1.539zM.466557 63.0047c0 1.0886.075367 1.1261 1.997233 1.3889 1.05513.1126 2.52479.2252 3.24078.2252 1.24356 0 1.28124 0 1.01746 1.3888-.11305.7883-.22611 2.2147-.22611 3.1531v1.6892l-3.2031-.1502-3.2030983-.1877v1.1637c0 1.0885.1130503 1.1636 1.6203883 1.3513.86673.1126 3.99446.3003 6.97146.4129l5.35103.2252v-1.0886c0-1.3513-.4899-1.5765-3.2408-1.5765H8.75694V64.5437l2.82626.2628 2.8263.2627v-2.7026h-2.3741c-1.3189 0-4.48434-.1126-6.97145-.2628l-4.597393-.2252v1.1261zM129.043 72.3889c.113 3.8287.188 4.2041 1.168 5.4803 3.655 4.8047 11.004 3.1531 12.285-2.7402.226-1.051.414-2.8152.414-3.9038v-1.9894l-3.843-.2628c-2.148-.1126-5.314-.3378-7.01-.4504l-3.165-.2628.151 4.1291zm8.139-1.1637l3.467.2628v1.6516c0 3.1531-1.809 4.9924-4.899 4.9924-1.959 0-3.58-.9385-4.333-2.4775-.565-1.2387-.754-3.9413-.302-4.3917.302-.3379 1.696-.3379 6.067-.0376zM9.62366 77.0059c-1.31893.5255-2.03491 2.0269-2.41175 4.9173-.37683 3.0029-.75367 3.7161-2.11028 3.7161-.6783 0-1.05513-.3378-1.46965-1.3513-.60294-1.464-.41452-2.5525.60293-3.7162.67831-.7132.67831-.7882 0-1.614l-.71598-.8634-.79136.7883c-1.54502 1.539-1.959539 4.2416-.97977 6.4938.75367 1.8393 1.95955 2.7027 3.69299 2.7027 2.29869 0 3.54225-1.5766 3.8814-4.9549.33915-3.1155.71601-3.8663 1.88421-3.8663 2.0349 0 2.7509 3.2657 1.1305 5.1801-.9421 1.1261-.9421 1.1261-.2261 1.9894.716.8634.7536.8634 1.5073.1877 1.2059-1.0885 2.0726-3.7161 1.7335-5.3677-.6407-3.4909-3.0901-5.2927-5.72794-4.2416zM128.854 85.3015c-3.881 2.0269-4.899 7.9577-1.884 11.2609 2.487 2.7402 6.595 3.1531 9.685.976 1.356-.976 2.864-4.129 2.864-6.0809 0-1.6892-1.055-4.2041-2.111-5.1426-2.11-1.8392-6.067-2.3272-8.554-1.0134zm6.03 2.2146c2.826 1.7267 3.165 5.5554.678 7.8076-1.319 1.2012-1.545 1.2763-3.505 1.1261-1.808-.1501-2.261-.3753-3.353-1.539-1.056-1.2011-1.244-1.6516-1.244-3.3032 0-1.7267.151-2.0645 1.47-3.3783 1.243-1.2387 1.695-1.4639 3.09-1.4639.98 0 2.148.3003 2.864.7507zM17.3488 93.5595c-.603.3379-.5276.6381.8667 3.3783.829 1.6892 1.4697 3.0782 1.3943 3.1152-1.1682.826-2.977 1.727-3.2031 1.614-.1884-.112-.9044-1.388-1.6204-2.8524-.6783-1.4639-1.3943-2.6651-1.5073-2.6651-.1131 0-.5276.2253-.9044.488-.6407.488-.603.6381.6783 3.1906.7536 1.4639 1.3566 2.7779 1.3566 2.8899 0 .188-2.8263 1.69-3.1654 1.69-.1131 0-.9045-1.352-1.73349-3.003-1.43198-2.8531-1.58271-3.0033-2.37407-2.5904-.4522.2253-.86672.488-.9044.5256-.2261.1501 4.10746 8.0708 4.40896 8.0708.3015 0 11.6819-5.856 11.9834-6.194.1884-.188-4.0698-8.0704-4.3713-8.0704-.1507 0-.5653.1877-.9044.4129zM119.81 101.968l-.942 1.201 3.316 4.091c1.847 2.253 3.279 4.129 3.241 4.204-.075.038-2.299-.825-4.936-1.951-4.485-1.952-4.862-2.027-5.351-1.427-1.395 1.764-1.432 1.652 2.901 7.17 2.299 2.89 4.334 5.367 4.522 5.48.189.113.603-.188.942-.713.603-.901.566-.976-2.638-4.955-1.771-2.215-3.165-4.091-3.09-4.167.113-.075 2.261.789 4.824 1.877 4.22 1.877 4.748 1.99 5.313 1.502 1.432-1.277 1.206-1.84-2.185-5.931-1.772-2.177-3.204-4.016-3.128-4.092.075-.075 2.336.789 5.012 1.952l4.823 2.065.716-.901c.377-.488.716-.976.716-1.089 0-.112-.716-.488-1.582-.825-.905-.338-3.844-1.539-6.557-2.665l-4.937-2.027-.98 1.201zM22.1346 105.308c-1.5074.676-2.4118 1.765-2.5248 2.928-.0754.751-.3392 1.051-1.1305 1.202-.603.112-1.5074.638-2.0349 1.201-.8667.825-.9798 1.201-.8291 2.59.1508 1.313.6783 2.177 2.5625 4.467l2.3364 2.852 1.0174-.863c.5653-.45 2.9017-2.44 5.2381-4.392 2.2987-1.952 4.2205-3.641 4.2205-3.753 0-.639-4.7104-5.631-5.8033-6.156-1.5073-.714-1.5827-.714-3.0523-.076zm4.3336 3.867l1.545 1.802-1.6204 1.426-1.5827 1.464-1.432-1.652c-1.8088-2.064-2.0349-2.74-1.2812-3.866 1.0175-1.577 2.5248-1.276 4.3713.826zm-4.9366 4.129l1.5451 1.726-1.0175 1.089c-.5652.563-1.2059 1.051-1.3943 1.051-.716-.037-2.8639-2.928-2.8639-3.904 0-.901.829-1.689 1.7711-1.726.2261 0 1.1305.788 1.9595 1.764zM108.543 114.693c-.377.262-.678.6-.678.75 0 .113 1.13 1.765 2.487 3.641 1.356 1.877 2.411 3.491 2.336 3.566-.113.076-2.525-.6-5.389-1.501-3.881-1.239-5.388-1.577-5.916-1.314-.377.188-.678.526-.678.713 0 .601 7.612 10.886 8.064 10.886.226 0 .716-.263 1.093-.563.678-.488.565-.713-1.809-3.941-1.394-1.877-2.449-3.491-2.336-3.604.113-.113 2.487.488 5.275 1.351 4.221 1.277 5.238 1.502 5.917 1.127.791-.413.791-.451.15-1.427-1.695-2.59-7.386-10.21-7.612-10.21-.15 0-.565.263-.904.526zM36.1905 122.988c-1.6957 2.59-3.2407 4.692-3.4668 4.692-.2261 0-.8291-.337-1.3566-.75-1.2059-.939-1.5828-.939-2.1857 0-.4145.713-.1884.938 3.5799 3.378l4.0699 2.627.6783-.825c.6783-.789.6406-.826-.8291-1.765-.8667-.525-1.545-1.088-1.545-1.201 0-.112 1.3566-2.252 3.0147-4.804 1.6581-2.515 3.0147-4.73 3.0147-4.918 0-.338-1.2059-1.126-1.6958-1.126-.113 0-1.5827 2.102-3.2785 4.692zM89.6635 124.828c-4.3713 1.501-6.3309 4.166-5.7656 7.845.4899 3.303 2.7886 5.555 5.954 5.818 2.2233.188 7.4613-1.164 7.4613-1.914 0-.263-.829-3.154-1.8465-6.457-1.4696-4.842-1.9595-6.006-2.5248-6.081-.4145-.037-1.8841.338-3.2784.789zm3.5045 5.93c.6784 2.328 1.2813 4.392 1.2813 4.617.0754.639-3.6176 1.352-4.8989.939-4.4466-1.464-4.4466-7.733.0377-9.309 2.2233-.751 2.261-.713 3.5799 3.753zM51.377 126.066c-.1884.789-.9044 3.529-1.545 6.119-.6407 2.59-1.2436 4.955-1.3566 5.292-.2261.751 1.7711 1.277 2.1856.601.1507-.225.6406-1.952 1.0928-3.829.4522-1.839.9421-3.603 1.0929-3.866.1507-.3 1.1305 1.614 2.4117 4.73 1.6581 4.054 2.3364 5.292 2.977 5.48.4145.113.829.15.9044.113.1884-.226 3.4669-13.176 3.3538-13.288-.0753-.075-.6029-.188-1.1681-.226-1.0552-.075-1.0929 0-2.1103 3.979-.5653 2.252-1.0928 4.129-1.1682 4.204-.0754.113-1.0552-2.064-2.1857-4.804-1.0928-2.703-2.261-5.18-2.5624-5.443-.9798-.788-1.5451-.526-1.9219.938zM69.8042 128.243c-4.6727 2.102-5.8409 8.334-2.1856 11.712 2.6755 2.515 7.5744 2.59 10.2122.188 3.2031-2.853 2.7509-8.822-.8667-11.186-1.8842-1.239-5.238-1.577-7.1599-.714zm5.8033 2.478c3.8061 3.003 2.0349 8.971-2.6755 8.971-3.0524 0-5.0119-1.914-5.0119-4.88 0-2.965 1.9218-4.842 4.9365-4.879 1.2059 0 2.0349.225 2.7509.788zM42.8229 132.485c-1.6581 2.027-1.8089 2.365-1.2436 2.74.9798.601 1.3943.338 2.6378-1.576.9798-1.539 1.1305-1.952.6783-2.252-.7536-.488-.7913-.451-2.0725 1.088z"/>
</svg>